<svg width="75" height="12" viewBox="0 0 75 12" fill="none" xmlns="http://www.w3.org/2000/svg">
<path d="M4.13608 0.336243C4.61608 0.336243 5.02408 0.404243 5.36008 0.540244C5.69608 0.676244 6.02408 0.868244 6.34408 1.11624C6.43208 1.18824 6.50808 1.22424 6.57208 1.22424C6.73208 1.22424 6.83608 0.984244 6.88408 0.504244H7.16008C7.12808 1.02424 7.11208 1.94424 7.11208 3.26424H6.83608C6.74808 2.74424 6.66808 2.37224 6.59608 2.14824C6.52408 1.91624 6.40408 1.69624 6.23608 1.48824C5.99608 1.17624 5.68808 0.944244 5.31208 0.792244C4.94408 0.632244 4.54408 0.552243 4.11208 0.552243C3.59208 0.552243 3.13608 0.724244 2.74408 1.06824C2.36008 1.41224 2.06008 1.90424 1.84408 2.54424C1.62808 3.17624 1.52008 3.92024 1.52008 4.77624C1.52008 5.64824 1.63608 6.39624 1.86808 7.02024C2.10008 7.64424 2.42008 8.12024 2.82808 8.44824C3.24408 8.76824 3.71208 8.92824 4.23208 8.92824C4.63208 8.92824 5.02008 8.85224 5.39608 8.70024C5.77208 8.54824 6.06808 8.32024 6.28408 8.01624C6.44408 7.79224 6.56008 7.55224 6.63208 7.29624C6.70408 7.04024 6.77208 6.64824 6.83608 6.12024H7.11208C7.11208 7.49624 7.12808 8.45624 7.16008 9.00024H6.88408C6.86008 8.74424 6.82408 8.56424 6.77608 8.46024C6.73608 8.34824 6.67608 8.29224 6.59608 8.29224C6.53208 8.29224 6.44808 8.32424 6.34408 8.38824C5.98408 8.64424 5.64008 8.84024 5.31208 8.97624C4.98408 9.10424 4.58808 9.16824 4.12408 9.16824C3.36408 9.16824 2.69608 8.99624 2.12008 8.65224C1.55208 8.30824 1.10808 7.81224 0.788082 7.16424C0.476082 6.50824 0.320082 5.72824 0.320082 4.82424C0.320082 3.94424 0.480082 3.16424 0.800082 2.48424C1.12808 1.80424 1.58008 1.27624 2.15608 0.900244C2.74008 0.524244 3.40008 0.336243 4.13608 0.336243ZM14.0778 0.336243C14.8378 0.336243 15.5018 0.508244 16.0698 0.852244C16.6458 1.19624 17.0898 1.69624 17.4018 2.35224C17.7218 3.00024 17.8818 3.77624 17.8818 4.68024C17.8818 5.56024 17.7178 6.34024 17.3898 7.02024C17.0698 7.70024 16.6178 8.22824 16.0338 8.60424C15.4578 8.98024 14.8018 9.16824 14.0658 9.16824C13.3058 9.16824 12.6378 8.99624 12.0618 8.65224C11.4938 8.30824 11.0498 7.81224 10.7298 7.16424C10.4178 6.50824 10.2618 5.72824 10.2618 4.82424C10.2618 3.94424 10.4218 3.16424 10.7418 2.48424C11.0698 1.80424 11.5218 1.27624 12.0978 0.900244C12.6818 0.524244 13.3418 0.336243 14.0778 0.336243ZM14.0298 0.552243C13.5178 0.552243 13.0658 0.732244 12.6738 1.09224C12.2898 1.44424 11.9898 1.94024 11.7738 2.58024C11.5658 3.22024 11.4618 3.95224 11.4618 4.77624C11.4618 5.60824 11.5778 6.34024 11.8098 6.97224C12.0498 7.60424 12.3698 8.09224 12.7698 8.43624C13.1698 8.78024 13.6178 8.95224 14.1138 8.95224C14.6258 8.95224 15.0738 8.77624 15.4578 8.42424C15.8498 8.06424 16.1498 7.56424 16.3578 6.92424C16.5738 6.28424 16.6818 5.55224 16.6818 4.72824C16.6818 3.89624 16.5618 3.16424 16.3218 2.53224C16.0898 1.90024 15.7738 1.41224 15.3738 1.06824C14.9738 0.724244 14.5258 0.552243 14.0298 0.552243ZM28.1466 0.744244C27.8666 0.760244 27.6586 0.804244 27.5226 0.876244C27.3866 0.940244 27.2946 1.05224 27.2466 1.21224C27.1986 1.36424 27.1746 1.59224 27.1746 1.89624V9.06024H26.8986L21.8586 1.27224V7.60824C21.8586 7.92024 21.8826 8.15224 21.9306 8.30424C21.9866 8.45624 22.0906 8.56824 22.2426 8.64024C22.3946 8.70424 22.6306 8.74424 22.9506 8.76024V9.00024C22.6626 8.97624 22.2546 8.96424 21.7266 8.96424C21.2466 8.96424 20.8746 8.97624 20.6106 9.00024V8.76024C20.8906 8.74424 21.0986 8.70424 21.2346 8.64024C21.3706 8.56824 21.4626 8.45624 21.5106 8.30424C21.5586 8.14424 21.5826 7.91224 21.5826 7.60824V1.77624C21.5826 1.47224 21.5586 1.25224 21.5106 1.11624C21.4626 0.980244 21.3706 0.888244 21.2346 0.840244C21.1066 0.792244 20.8986 0.760244 20.6106 0.744244V0.504244C20.8746 0.528244 21.2466 0.540244 21.7266 0.540244C22.0866 0.540244 22.3986 0.528244 22.6626 0.504244L26.8986 7.03224V1.89624C26.8986 1.58424 26.8706 1.35224 26.8146 1.20024C26.7666 1.04824 26.6666 0.940244 26.5146 0.876244C26.3626 0.804244 26.1266 0.760244 25.8066 0.744244V0.504244C26.0946 0.528244 26.5026 0.540244 27.0306 0.540244C27.5106 0.540244 27.8826 0.528244 28.1466 0.504244V0.744244ZM39.3332 9.34824C39.1572 9.95624 38.9052 10.4122 38.5772 10.7162C38.1852 11.0762 37.6452 11.2562 36.9572 11.2562C36.5892 11.2562 36.2292 11.2002 35.8772 11.0882C35.5252 10.9762 35.0812 10.8002 34.5452 10.5602C33.9532 10.3042 33.4692 10.1122 33.0932 9.98424L32.8052 9.90024C32.4612 10.0202 32.1292 10.0802 31.8092 10.0802C31.4412 10.0802 31.2572 10.0002 31.2572 9.84024C31.2572 9.67224 31.4732 9.58824 31.9052 9.58824C32.1852 9.58824 32.4852 9.62024 32.8052 9.68424C33.0612 9.61224 33.3572 9.50024 33.6932 9.34824C33.9012 9.25224 34.0572 9.18424 34.1612 9.14424C33.4812 9.08024 32.8892 8.86824 32.3852 8.50824C31.8892 8.14824 31.5012 7.65624 31.2212 7.03224C30.9492 6.40024 30.8132 5.66424 30.8132 4.82424C30.8132 3.94424 30.9732 3.16424 31.2932 2.48424C31.6212 1.80424 32.0732 1.27624 32.6492 0.900244C33.2332 0.524244 33.8932 0.336243 34.6292 0.336243C35.3892 0.336243 36.0532 0.508244 36.6212 0.852244C37.1972 1.19624 37.6412 1.69624 37.9532 2.35224C38.2732 3.00024 38.4332 3.77624 38.4332 4.68024C38.4332 5.51224 38.2892 6.25624 38.0012 6.91224C37.7132 7.56024 37.3092 8.08024 36.7892 8.47224C36.2692 8.85624 35.6732 9.08024 35.0012 9.14424V9.15624C34.8092 9.18024 34.6412 9.21224 34.4972 9.25224C34.3612 9.30024 34.1772 9.37224 33.9452 9.46824C33.6572 9.59624 33.4172 9.68824 33.2252 9.74424C34.1132 9.92024 34.8652 10.0602 35.4812 10.1642C36.1052 10.2682 36.6212 10.3202 37.0292 10.3202C37.5972 10.3202 38.0452 10.2362 38.3732 10.0682C38.7092 9.90824 38.9692 9.64424 39.1532 9.27624L39.3332 9.34824ZM32.0132 4.77624C32.0132 5.60824 32.1292 6.34024 32.3612 6.97224C32.6012 7.60424 32.9212 8.09224 33.3212 8.43624C33.7212 8.78024 34.1692 8.95224 34.6652 8.95224C35.1772 8.95224 35.6252 8.77624 36.0092 8.42424C36.4012 8.06424 36.7012 7.56424 36.9092 6.92424C37.1252 6.28424 37.2332 5.55224 37.2332 4.72824C37.2332 3.89624 37.1132 3.16424 36.8732 2.53224C36.6412 1.90024 36.3252 1.41224 35.9252 1.06824C35.5252 0.724244 35.0772 0.552243 34.5812 0.552243C34.0692 0.552243 33.6172 0.732244 33.2252 1.09224C32.8412 1.44424 32.5412 1.94024 32.3252 2.58024C32.1172 3.22024 32.0132 3.95224 32.0132 4.77624ZM48.5414 0.744244C48.2614 0.760244 48.0534 0.804244 47.9174 0.876244C47.7814 0.940244 47.6894 1.05224 47.6414 1.21224C47.5934 1.36424 47.5694 1.59224 47.5694 1.89624V5.50824C47.5694 6.08424 47.5294 6.58024 47.4494 6.99624C47.3774 7.40424 47.2534 7.75624 47.0774 8.05224C46.8774 8.39624 46.5814 8.66824 46.1894 8.86824C45.8054 9.06824 45.3694 9.16824 44.8814 9.16824C44.0014 9.16824 43.3294 8.95224 42.8654 8.52024C42.5134 8.19224 42.2774 7.82024 42.1574 7.40424C42.0374 6.98824 41.9774 6.36824 41.9774 5.54424V1.77624C41.9774 1.47224 41.9534 1.25224 41.9054 1.11624C41.8574 0.980244 41.7654 0.888244 41.6294 0.840244C41.5014 0.792244 41.2934 0.760244 41.0054 0.744244V0.504244C41.3414 0.528244 41.8534 0.540244 42.5414 0.540244C43.1894 0.540244 43.6974 0.528244 44.0654 0.504244V0.744244C43.7774 0.760244 43.5654 0.792244 43.4294 0.840244C43.3014 0.888244 43.2134 0.980244 43.1654 1.11624C43.1174 1.25224 43.0934 1.47224 43.0934 1.77624V5.74824C43.0934 6.38824 43.1374 6.92024 43.2254 7.34424C43.3134 7.76824 43.4934 8.10824 43.7654 8.36424C44.0454 8.62024 44.4534 8.74824 44.9894 8.74824C45.8374 8.74824 46.4334 8.47624 46.7774 7.93224C47.1214 7.38824 47.2934 6.62424 47.2934 5.64024V1.89624C47.2934 1.46424 47.2134 1.16824 47.0534 1.00824C46.9014 0.848244 46.6174 0.760244 46.2014 0.744244V0.504244C46.4894 0.528244 46.8974 0.540244 47.4254 0.540244C47.9054 0.540244 48.2774 0.528244 48.5414 0.504244V0.744244ZM57.1891 7.46424C57.1891 7.92024 57.2171 8.43224 57.2731 9.00024C56.7291 8.97624 55.8131 8.96424 54.5251 8.96424C52.9891 8.96424 51.8291 8.97624 51.0451 9.00024V8.76024C51.3331 8.74424 51.5411 8.71224 51.6691 8.66424C51.8051 8.61624 51.8971 8.52424 51.9451 8.38824C51.9931 8.25224 52.0171 8.03224 52.0171 7.72824V1.77624C52.0171 1.47224 51.9931 1.25224 51.9451 1.11624C51.8971 0.980244 51.8051 0.888244 51.6691 0.840244C51.5411 0.792244 51.3331 0.760244 51.0451 0.744244V0.504244C51.8291 0.528244 52.9891 0.540244 54.5251 0.540244C55.7011 0.540244 56.5371 0.528244 57.0331 0.504244C56.9771 1.03224 56.9491 1.50424 56.9491 1.92024C56.9491 2.23224 56.9611 2.48024 56.9851 2.66424H56.7091C56.6531 2.14424 56.5811 1.76024 56.4931 1.51224C56.4051 1.25624 56.2571 1.07224 56.0491 0.960244C55.8411 0.840244 55.5251 0.780243 55.1011 0.780243H54.1051C53.8171 0.780243 53.6051 0.804244 53.4691 0.852244C53.3411 0.892244 53.2531 0.980244 53.2051 1.11624C53.1571 1.25224 53.1331 1.47224 53.1331 1.77624V4.60824H53.9251C54.2051 4.60824 54.4211 4.54424 54.5731 4.41624C54.7251 4.28024 54.8251 4.12424 54.8731 3.94824C54.9291 3.76424 54.9731 3.53624 55.0051 3.26424L55.0411 3.02424H55.3171C55.2931 3.36024 55.2811 3.73624 55.2811 4.15224V4.72824C55.2811 5.13624 55.3051 5.70424 55.3531 6.43224H55.0771C55.0691 6.37624 55.0451 6.18424 55.0051 5.85624C54.9651 5.52024 54.8531 5.26824 54.6691 5.10024C54.4931 4.93224 54.2451 4.84824 53.9251 4.84824H53.1331V7.72824C53.1331 8.03224 53.1571 8.25224 53.2051 8.38824C53.2531 8.52424 53.3411 8.61624 53.4691 8.66424C53.6051 8.70424 53.8171 8.72424 54.1051 8.72424H54.9811C55.4771 8.72424 55.8531 8.66024 56.1091 8.53224C56.3731 8.39624 56.5651 8.18424 56.6851 7.89624C56.8051 7.60024 56.8931 7.16824 56.9491 6.60024H57.2251C57.2011 6.81624 57.1891 7.10424 57.1891 7.46424ZM62.6056 0.372244C62.9576 0.372244 63.2336 0.412244 63.4336 0.492244C63.6416 0.564244 63.8536 0.672244 64.0696 0.816244C64.2456 0.928244 64.3816 0.984244 64.4776 0.984244C64.5496 0.984244 64.6056 0.944244 64.6456 0.864244C64.6856 0.776244 64.7176 0.640244 64.7416 0.456244H65.0176C64.9776 0.920244 64.9576 1.73624 64.9576 2.90424H64.6816C64.6336 2.25624 64.4456 1.71224 64.1176 1.27224C63.7976 0.824244 63.3296 0.600244 62.7136 0.600244C62.2816 0.600244 61.9296 0.732244 61.6576 0.996243C61.3856 1.25224 61.2496 1.58424 61.2496 1.99224C61.2496 2.29624 61.3176 2.56024 61.4536 2.78424C61.5976 3.00824 61.7776 3.20024 61.9936 3.36024C62.2096 3.52024 62.5176 3.72424 62.9176 3.97224L63.2656 4.18824C63.7696 4.50024 64.1656 4.77624 64.4536 5.01624C64.7496 5.24824 64.9856 5.51624 65.1616 5.82024C65.3376 6.12424 65.4256 6.48024 65.4256 6.88824C65.4256 7.61624 65.1856 8.18024 64.7056 8.58024C64.2256 8.97224 63.6176 9.16824 62.8816 9.16824C62.4976 9.16824 62.1816 9.12824 61.9336 9.04824C61.6936 8.96824 61.4616 8.86024 61.2376 8.72424C61.0616 8.61224 60.9256 8.55624 60.8296 8.55624C60.7576 8.55624 60.7016 8.60024 60.6616 8.68824C60.6216 8.76824 60.5896 8.90024 60.5656 9.08424H60.2896C60.3216 8.64424 60.3376 7.68424 60.3376 6.20424H60.6136C60.6696 7.01224 60.8696 7.66824 61.2136 8.17224C61.5576 8.67624 62.0856 8.92824 62.7976 8.92824C63.2296 8.92824 63.5976 8.79624 63.9016 8.53224C64.2056 8.26024 64.3576 7.86024 64.3576 7.33224C64.3576 6.88424 64.2056 6.50424 63.9016 6.19224C63.6056 5.88024 63.1336 5.52824 62.4856 5.13624C62.0136 4.84824 61.6296 4.59224 61.3336 4.36824C61.0456 4.14424 60.8096 3.87624 60.6256 3.56424C60.4416 3.24424 60.3496 2.87224 60.3496 2.44824C60.3496 1.77624 60.5656 1.26424 60.9976 0.912244C61.4296 0.552244 61.9656 0.372244 62.6056 0.372244ZM74.7981 0.504244C74.7421 1.07224 74.7141 1.58424 74.7141 2.04024C74.7141 2.44024 74.7261 2.76824 74.7501 3.02424H74.4741C74.4101 2.40824 74.3301 1.95224 74.2341 1.65624C74.1381 1.35224 73.9701 1.13224 73.7301 0.996243C73.4901 0.852243 73.1221 0.780243 72.6261 0.780243H71.9781V7.60824C71.9781 7.94424 72.0101 8.18824 72.0741 8.34024C72.1381 8.49224 72.2501 8.59624 72.4101 8.65224C72.5701 8.70824 72.8301 8.74424 73.1901 8.76024V9.00024C72.7741 8.97624 72.1861 8.96424 71.4261 8.96424C70.6261 8.96424 70.0341 8.97624 69.6501 9.00024V8.76024C70.0101 8.74424 70.2701 8.70824 70.4301 8.65224C70.5901 8.59624 70.7021 8.49224 70.7661 8.34024C70.8301 8.18824 70.8621 7.94424 70.8621 7.60824V0.780243H70.2141C69.7181 0.780243 69.3501 0.852243 69.1101 0.996243C68.8701 1.13224 68.7021 1.35224 68.6061 1.65624C68.5101 1.95224 68.4301 2.40824 68.3661 3.02424H68.0901C68.1141 2.76824 68.1261 2.44024 68.1261 2.04024C68.1261 1.58424 68.0981 1.07224 68.0421 0.504244C68.7061 0.528244 69.8341 0.540244 71.4261 0.540244C73.0101 0.540244 74.1341 0.528244 74.7981 0.504244Z" fill="#555248"/>
</svg>
